<?xml version="1.0" encoding="UTF-8"?>
<svg id="Layer_1" data-name="Layer 1" xmlns="http://www.w3.org/2000/svg" viewBox="0 0 30 30">
  <defs>
    <style>
      .cls-1 {
        fill: #000;
      }

      .cls-1, .cls-2, .cls-3, .cls-4, .cls-5, .cls-6, .cls-7, .cls-8 {
        stroke-width: 0px;
      }

      .cls-2 {
        fill: #492a04;
      }

      .cls-3 {
        fill: #350404;
      }

      .cls-4 {
        fill: #230404;
      }

      .cls-5 {
        fill: #352004;
      }

      .cls-6 {
        fill: #754806;
      }

      .cls-7 {
        fill: #422904;
      }

      .cls-8 {
        fill: #563706;
      }
    </style>
  </defs>
  <g>
    <rect class="cls-6" x=".5" y=".5" width="29" height="29"/>
    <path class="cls-1" d="M29,1v28H1V1h28M30,0H0v30h30V0h0Z"/>
  </g>
  <g>
    <polygon class="cls-2" points="4.87 4.17 1.21 .5 28.79 .5 25.13 4.17 4.87 4.17"/>
    <path class="cls-1" d="M27.59,1l-.63.63-2.04,2.04H5.08L3.04,1.63l-.63-.63h25.17M30,0H0c1.56,1.56,3.11,3.11,4.67,4.67h20.67C26.89,3.11,28.44,1.56,30,0h0Z"/>
  </g>
  <g>
    <polygon class="cls-3" points="25.83 25.13 25.83 4.87 29.5 1.21 29.5 28.79 25.83 25.13"/>
    <path class="cls-1" d="M29,2.41v25.17l-.63-.63-2.04-2.04V5.08l2.04-2.04.63-.63M30,0c-1.56,1.56-3.11,3.11-4.67,4.67v20.67c1.56,1.56,3.11,3.11,4.67,4.67V0h0Z"/>
  </g>
  <g>
    <polygon class="cls-8" points=".5 1.21 4.17 4.87 4.19 25.13 .5 28.8 .5 1.21"/>
    <path class="cls-1" d="M1,2.41l.63.63,2.04,2.04v9.92s.02,9.92.02,9.92l-2.05,2.04-.64.64V2.41M0,0v30c1.56-1.55,3.12-3.11,4.69-4.66,0-6.89-.01-13.78-.02-20.67C3.11,3.11,1.56,1.56,0,0H0Z"/>
  </g>
  <g>
    <polygon class="cls-4" points="1.21 29.5 4.89 25.84 25.13 25.83 28.79 29.5 1.21 29.5"/>
    <path class="cls-1" d="M24.92,26.33l2.04,2.04.63.63H2.42l.63-.62,2.05-2.04h9.91s9.91,0,9.91,0M25.33,25.33c-6.88,0-13.76,0-20.65,0-1.56,1.55-3.12,3.11-4.69,4.66h30c-1.56-1.56-3.11-3.11-4.67-4.67h0Z"/>
  </g>
  <g>
    <polygon class="cls-5" points="5.18 21.14 21.47 5.17 24.83 5.17 24.83 8.53 8.86 24.84 5.19 24.84 5.18 21.14"/>
    <path class="cls-1" d="M24.33,5.67v2.66l-15.69,16.01h-1.77s-1.19,0-1.19,0v-1.2s0-1.78,0-1.78l7.99-7.84,8-7.85h2.66M25.33,4.67h-4.07c-5.53,5.42-11.06,10.84-16.58,16.27,0,1.47,0,2.94,0,4.4,1.46,0,2.92,0,4.38,0,5.42-5.53,10.84-11.07,16.27-16.6v-4.07h0Z"/>
  </g>
  <g>
    <polygon class="cls-7" points="5.17 8.54 5.17 5.18 8.53 5.18 24.84 21.15 24.84 24.82 21.15 24.83 5.17 8.54"/>
    <path class="cls-1" d="M8.33,5.68l16.01,15.69v2.96s-2.98,0-2.98,0l-7.84-7.99-7.85-8v-2.66s1.03,0,1.03,0h1.63M8.74,4.68c-1.36,0-2.71,0-4.07,0,0,1.36,0,2.71,0,4.07,5.42,5.53,10.85,11.06,16.27,16.58,1.47,0,2.94,0,4.4,0,0-1.46,0-2.92,0-4.38-5.53-5.42-11.07-10.84-16.6-16.27h0Z"/>
  </g>
</svg>