<?xml version="1.0" encoding="UTF-8"?>
<svg id="Layer_1" data-name="Layer 1" xmlns="http://www.w3.org/2000/svg" viewBox="0 0 18.74 21.71">
  <defs>
    <style>
      .cls-1 {
        fill: #000;
      }

      .cls-1, .cls-2 {
        stroke-width: 0px;
      }

      .cls-2 {
        fill: #f4e134;
      }
    </style>
  </defs>
  <path class="cls-2" d="M10.5,21.21c-1.16,0-2.26-.18-3.28-.53C3.34,19.35.58,15.51.5,11.35.4,6.17,4.45,3.14,5.27,2.59,7.07,1.36,9.61.5,11.44.5c.88,0,1.51.2,1.76.56.38.54-.21,1.53-.89,2.67-.98,1.65-2.19,3.7-1.68,6.11.59,2.73,3.04,4.13,5,5.25,1.42.81,2.65,1.51,2.6,2.38-.1,1.48-3.6,3.75-7.73,3.75h0Z"/>
  <path class="cls-1" d="M11.44,1c.82,0,1.24.19,1.35.34.19.27-.44,1.35-.91,2.13-.97,1.63-2.29,3.86-1.73,6.47.63,2.95,3.19,4.4,5.24,5.58,1.17.67,2.38,1.36,2.35,1.91-.07,1.12-3.18,3.28-7.24,3.28-1.1,0-2.15-.17-3.12-.5-3.68-1.26-6.3-4.91-6.38-8.87-.1-4.92,3.77-7.81,4.55-8.34,1.73-1.18,4.15-2,5.89-2M11.44,0c-1.88,0-4.49.84-6.45,2.18C4.43,2.55-.11,5.76,0,11.36c.09,4.44,3.04,8.42,7.05,9.8,1.13.39,2.3.56,3.45.56,4.23,0,8.11-2.29,8.23-4.22.17-2.61-6.62-3.19-7.61-7.76-.88-4.07,3.72-7.19,2.48-8.96-.37-.53-1.17-.77-2.17-.77h0Z"/>
</svg>