<?xml version="1.0" encoding="UTF-8"?>
<svg id="Layer_1" data-name="Layer 1" xmlns="http://www.w3.org/2000/svg" viewBox="0 0 22.46 18.6">
  <defs>
    <style>
      .cls-1 {
        fill: #000;
        stroke-width: 0px;
      }
    </style>
  </defs>
  <g>
    <circle class="cls-1" cx="3.57" cy="3.41" r="2.91"/>
    <path class="cls-1" d="M3.57,1c1.33,0,2.41,1.08,2.41,2.41s-1.08,2.41-2.41,2.41-2.41-1.08-2.41-2.41S2.24,1,3.57,1M3.57,0C1.68,0,.16,1.53.16,3.41s1.53,3.41,3.41,3.41,3.41-1.53,3.41-3.41S5.45,0,3.57,0h0Z"/>
  </g>
  <g>
    <path class="cls-1" d="M18.31,6.32c-1.6,0-2.91-1.31-2.91-2.91s1.31-2.91,2.91-2.91,2.91,1.31,2.91,2.91-1.31,2.91-2.91,2.91Z"/>
    <path class="cls-1" d="M18.31,1c1.33,0,2.41,1.08,2.41,2.41s-1.08,2.41-2.41,2.41-2.41-1.08-2.41-2.41,1.08-2.41,2.41-2.41M18.31,0c-1.88,0-3.41,1.53-3.41,3.41s1.53,3.41,3.41,3.41,3.41-1.53,3.41-3.41-1.53-3.41-3.41-3.41h0Z"/>
  </g>
  <g>
    <path class="cls-1" d="M2.1,18.1c-.83,0-1.55-.71-1.6-1.57-.03-.47.15-.93.47-1.28.31-.33.71-.5,1.14-.5h18.27c.82,0,1.53.71,1.58,1.57.03.46-.14.93-.46,1.27-.3.32-.7.5-1.12.51H2.1Z"/>
    <path class="cls-1" d="M2.11,15.25h.02s18.24,0,18.24,0c.57,0,1.05.5,1.09,1.1.02.33-.1.66-.33.9-.21.22-.48.35-.75.35H2.1c-.57,0-1.07-.49-1.1-1.1-.02-.33.1-.66.34-.91.21-.22.49-.35.77-.35M2.11,14.25C.89,14.25-.06,15.35,0,16.56c.06,1.11.98,2.04,2.1,2.04,0,0,.02,0,.02,0h18.25c1.21-.02,2.14-1.11,2.07-2.31-.06-1.11-.97-2.03-2.07-2.04H2.13s-.01,0-.02,0h0Z"/>
  </g>
</svg>