<?xml version="1.0" encoding="UTF-8"?>
<svg id="Layer_1" data-name="Layer 1" xmlns="http://www.w3.org/2000/svg" viewBox="0 0 21.57 6.82">
  <defs>
    <style>
      .cls-1 {
        fill: #000;
        stroke-width: 0px;
      }
    </style>
  </defs>
  <g>
    <circle class="cls-1" cx="3.41" cy="3.41" r="2.91"/>
    <path class="cls-1" d="M3.41,1c1.33,0,2.41,1.08,2.41,2.41s-1.08,2.41-2.41,2.41-2.41-1.08-2.41-2.41S2.08,1,3.41,1M3.41,0C1.53,0,0,1.53,0,3.41s1.53,3.41,3.41,3.41,3.41-1.53,3.41-3.41S5.29,0,3.41,0h0Z"/>
  </g>
  <g>
    <path class="cls-1" d="M18.16,6.32c-1.6,0-2.91-1.31-2.91-2.91s1.31-2.91,2.91-2.91,2.91,1.31,2.91,2.91-1.31,2.91-2.91,2.91Z"/>
    <path class="cls-1" d="M18.16,1c1.33,0,2.41,1.08,2.41,2.41s-1.08,2.41-2.41,2.41-2.41-1.08-2.41-2.41,1.08-2.41,2.41-2.41M18.16,0c-1.88,0-3.41,1.53-3.41,3.41s1.53,3.41,3.41,3.41,3.41-1.53,3.41-3.41-1.53-3.41-3.41-3.41h0Z"/>
  </g>
</svg>