<?xml version="1.0" encoding="UTF-8"?>
<svg id="Layer_1" data-name="Layer 1" xmlns="http://www.w3.org/2000/svg" viewBox="0 0 28.13 28.27">
  <defs>
    <style>
      .cls-1 {
        fill: #000;
      }

      .cls-1, .cls-2 {
        stroke-width: 0px;
      }

      .cls-2 {
        fill: #fff;
      }
    </style>
  </defs>
  <g>
    <rect class="cls-2" x=".5" y=".5" width="27.13" height="27.27" rx="5.63" ry="5.63"/>
    <path class="cls-1" d="M22,1c2.83,0,5.13,2.3,5.13,5.13v16.01c0,2.83-2.3,5.13-5.13,5.13H6.13c-2.83,0-5.13-2.3-5.13-5.13V6.13C1,3.3,3.3,1,6.13,1h15.87M22,0H6.13C2.74,0,0,2.74,0,6.13v16.01c0,3.39,2.74,6.13,6.13,6.13h15.87c3.39,0,6.13-2.74,6.13-6.13V6.13c0-3.39-2.74-6.13-6.13-6.13h0Z"/>
  </g>
  <g>
    <path class="cls-1" d="M7.36,11.05c-1.37,0-2.49-1.12-2.49-2.5s1.12-2.5,2.49-2.5,2.49,1.12,2.49,2.5-1.11,2.5-2.49,2.5Z"/>
    <path class="cls-1" d="M7.36,6.55c1.09,0,1.99.9,1.99,2s-.89,2-1.99,2-1.99-.9-1.99-2,.89-2,1.99-2M7.36,5.55c-1.65,0-2.99,1.34-2.99,3s1.34,3,2.99,3,2.99-1.34,2.99-3-1.34-3-2.99-3h0Z"/>
  </g>
  <g>
    <path class="cls-1" d="M20.27,11.05c-1.37,0-2.49-1.12-2.49-2.5s1.12-2.5,2.49-2.5,2.49,1.12,2.49,2.5-1.12,2.5-2.49,2.5Z"/>
    <path class="cls-1" d="M20.27,6.55c1.09,0,1.99.9,1.99,2s-.89,2-1.99,2-1.99-.9-1.99-2,.89-2,1.99-2M20.27,5.55c-1.65,0-2.99,1.34-2.99,3s1.34,3,2.99,3,2.99-1.34,2.99-3-1.34-3-2.99-3h0Z"/>
  </g>
  <g>
    <path class="cls-1" d="M6.08,21.42c-.7,0-1.3-.59-1.34-1.33-.02-.4.12-.79.4-1.08.26-.27.59-.42.95-.42h16c.68,0,1.28.6,1.32,1.33.02.39-.12.79-.39,1.08-.25.27-.58.42-.93.43H6.08Z"/>
    <path class="cls-1" d="M22.07,19.09c.43,0,.8.39.83.85.01.26-.08.52-.26.71-.09.1-.29.26-.56.27H6.08c-.44,0-.81-.38-.84-.85-.01-.26.08-.52.27-.71.09-.1.29-.26.58-.26h.01s15.97,0,15.97,0M6.08,18.09c-1.07,0-1.91.97-1.85,2.03.05.98.86,1.8,1.84,1.8,0,0,.01,0,.02,0h15.98c1.06-.02,1.88-.98,1.82-2.03-.06-.97-.84-1.79-1.82-1.8H6.1s0,0-.01,0h0Z"/>
  </g>
</svg>