<?xml version="1.0" encoding="UTF-8"?>
<svg id="Layer_1" data-name="Layer 1" xmlns="http://www.w3.org/2000/svg" viewBox="0 0 23.7 24.24">
  <defs>
    <style>
      .cls-1 {
        fill: #ffb600;
      }

      .cls-1, .cls-2, .cls-3 {
        stroke-width: 0px;
      }

      .cls-2 {
        fill: #000;
      }

      .cls-3 {
        fill: #ffe000;
      }
    </style>
  </defs>
  <g>
    <path class="cls-1" d="M12.36,23.74c-.42,0-.61-.16-.99-.46-.32-.26-.73-.59-1.4-.89-.69-.31-1.39-.46-2.13-.46-.45,0-.87.05-1.24.1-.3.04-.58.08-.86.08h0c-.41,0-.72-.1-1.01-.32-.38-.28-.44-.54-.56-1.06-.14-.57-.32-1.36-1.05-2.44-.6-.9-1.15-1.36-1.58-1.73-.45-.38-.72-.61-.87-1.17-.15-.54-.04-.83.16-1.36.19-.49.42-1.1.49-2.09.11-1.49-.24-2.47-.52-3.25-.29-.79-.41-1.2-.15-1.77.2-.44.46-.58.92-.83.51-.28,1.22-.65,2.01-1.64.6-.75.84-1.34,1.02-1.77.19-.46.27-.62.56-.78.18-.1.35-.14.55-.14.29,0,.6.1.97.21.48.15,1.02.32,1.67.32.34,0,.66-.04,1-.13.93-.25,1.41-.72,1.79-1.1.34-.34.55-.54,1-.57h0c.57,0,.88.25,1.39.69.56.48,1.25,1.08,2.45,1.33.3.06.59.09.89.09.46,0,.84-.08,1.14-.14.21-.04.39-.08.54-.08s.27.04.41.13c.36.24.43.59.52,1.25.1.7.23,1.57.94,2.47.62.78,1.25,1.04,1.76,1.26.45.19.72.3.91.7.22.45.11.78-.16,1.49-.25.67-.6,1.58-.62,2.95-.02.94.12,1.57.23,2.08.13.6.2.93-.03,1.45-.2.44-.42.6-.75.84-.36.26-.8.58-1.26,1.3-.6.93-.68,1.7-.74,2.26-.06.54-.09.79-.38,1.04-.21.18-.41.25-.74.25-.18,0-.37-.02-.58-.04-.28-.03-.57-.05-.9-.05-.62,0-1.21.1-1.81.32-.89.32-1.41.75-1.82,1.1-.45.38-.68.55-1.13.55h-.02Z"/>
    <path class="cls-2" d="M12.22,1c.3,0,.49.15.98.57.57.49,1.35,1.17,2.68,1.44.34.07.66.1.98.1.52,0,.92-.08,1.25-.15.18-.04.34-.07.44-.07.04,0,.06,0,.13.05.17.11.21.28.3.91.1.72.25,1.7,1.04,2.71.7.88,1.43,1.19,1.96,1.41.45.19.55.24.65.45.11.24.09.38-.18,1.1-.26.7-.63,1.66-.65,3.12-.02,1,.13,1.69.24,2.2.13.61.16.78,0,1.14-.14.32-.27.41-.59.64-.37.27-.88.63-1.39,1.43-.66,1.03-.75,1.87-.81,2.48-.05.51-.08.6-.22.72-.1.09-.18.13-.41.13-.17,0-.34-.02-.53-.04-.28-.03-.59-.06-.95-.06-.68,0-1.33.11-1.98.35-.98.35-1.55.83-1.97,1.19-.43.36-.55.44-.82.44h0c-.24,0-.31-.05-.68-.35-.33-.27-.78-.63-1.51-.95-.76-.34-1.52-.5-2.33-.5-.49,0-.92.06-1.3.11-.3.04-.56.07-.79.07-.3,0-.5-.06-.71-.22-.22-.16-.25-.25-.38-.78-.15-.61-.35-1.44-1.12-2.6-.64-.95-1.24-1.46-1.67-1.83-.46-.39-.61-.53-.71-.92-.11-.39-.04-.55.14-1.05.19-.49.44-1.17.52-2.23.12-1.6-.27-2.67-.55-3.46-.26-.73-.34-1.01-.17-1.39.13-.28.25-.35.7-.6.55-.3,1.31-.7,2.16-1.76.65-.81.9-1.43,1.09-1.89.18-.43.2-.46.34-.53.11-.06.2-.08.31-.08.21,0,.49.09.82.19.49.15,1.09.34,1.82.34.38,0,.76-.05,1.13-.15,1.06-.28,1.61-.83,2.01-1.22.34-.34.43-.41.68-.42h.06M12.22,0s-.08,0-.12,0c-1.28.08-1.27,1.25-2.89,1.68-.31.08-.6.12-.87.12-1.07,0-1.85-.53-2.64-.53-.26,0-.52.06-.79.2-.89.49-.56,1.21-1.73,2.68C1.76,5.92.74,5.5.19,6.72c-.7,1.54.83,2.39.63,5.19-.15,2-.98,2.32-.63,3.62.36,1.32,1.3,1.24,2.52,3.04,1.35,2,.68,2.83,1.73,3.62.43.33.86.42,1.31.42.63,0,1.3-.18,2.09-.18.57,0,1.2.09,1.93.42,1.4.62,1.53,1.38,2.59,1.39,0,0,.02,0,.03,0,1.23,0,1.41-1.07,3.12-1.68.63-.23,1.17-.29,1.64-.29.58,0,1.06.09,1.48.09.39,0,.74-.08,1.07-.38.9-.8.16-1.77,1.21-3.41.83-1.3,1.55-1.1,2.05-2.2.53-1.2-.2-1.71-.16-3.73.05-2.66,1.35-3.39.73-4.67-.55-1.14-1.65-.69-2.73-2.05-1.25-1.58-.45-3.08-1.57-3.83-.24-.16-.46-.21-.68-.21-.46,0-.94.22-1.68.22-.23,0-.49-.02-.79-.08C13.99,1.61,13.65,0,12.22,0h0Z"/>
  </g>
  <g>
    <path class="cls-3" d="M11.81,20.9c-4.81,0-8.73-3.92-8.73-8.73S7,3.45,11.81,3.45s8.73,3.92,8.73,8.73-3.92,8.73-8.73,8.73Z"/>
    <path class="cls-2" d="M11.81,3.95c4.54,0,8.23,3.69,8.23,8.23s-3.69,8.23-8.23,8.23S3.58,16.71,3.58,12.17,7.27,3.95,11.81,3.95M11.81,2.95C6.71,2.95,2.58,7.08,2.58,12.17s4.13,9.23,9.23,9.23,9.23-4.13,9.23-9.23S16.91,2.95,11.81,2.95h0Z"/>
  </g>
</svg>