<?xml version="1.0" encoding="UTF-8"?>
<svg id="Layer_1" data-name="Layer 1" xmlns="http://www.w3.org/2000/svg" viewBox="0 0 131.46 66.01">
  <defs>
    <style>
      .cls-1 {
        fill: #000;
      }

      .cls-1, .cls-2 {
        stroke-width: 0px;
      }

      .cls-3 {
        stroke: #000;
        stroke-miterlimit: 10;
      }

      .cls-3, .cls-2 {
        fill: #fff;
      }
    </style>
  </defs>
  <g>
    <rect class="cls-2" x="30.45" y="34.27" width="31.13" height="31.13" rx="5.63" ry="5.63"/>
    <path class="cls-1" d="M55.96,34.78c2.83,0,5.13,2.3,5.13,5.13v19.87c0,2.83-2.3,5.13-5.13,5.13h-19.87c-2.83,0-5.13-2.3-5.13-5.13v-19.87c0-2.83,2.3-5.13,5.13-5.13h19.87M55.96,33.78h-19.87c-3.39,0-6.13,2.74-6.13,6.13v19.87c0,3.39,2.74,6.13,6.13,6.13h19.87c3.39,0,6.13-2.74,6.13-6.13v-19.87c0-3.39-2.74-6.13-6.13-6.13h0Z"/>
  </g>
  <g>
    <path class="cls-1" d="M38.36,46.41c-1.6,0-2.91-1.31-2.91-2.91s1.31-2.91,2.91-2.91,2.91,1.31,2.91,2.91-1.31,2.91-2.91,2.91Z"/>
    <path class="cls-1" d="M38.36,41.09c1.33,0,2.41,1.08,2.41,2.41s-1.08,2.41-2.41,2.41-2.41-1.08-2.41-2.41,1.08-2.41,2.41-2.41M38.36,40.09c-1.88,0-3.41,1.53-3.41,3.41s1.53,3.41,3.41,3.41,3.41-1.53,3.41-3.41-1.53-3.41-3.41-3.41h0Z"/>
  </g>
  <g>
    <circle class="cls-1" cx="53.11" cy="43.5" r="2.91"/>
    <path class="cls-1" d="M53.11,41.09c1.33,0,2.41,1.08,2.41,2.41s-1.08,2.41-2.41,2.41-2.41-1.08-2.41-2.41,1.08-2.41,2.41-2.41M53.11,40.09c-1.88,0-3.41,1.53-3.41,3.41s1.53,3.41,3.41,3.41,3.41-1.53,3.41-3.41-1.53-3.41-3.41-3.41h0Z"/>
  </g>
  <g>
    <path class="cls-1" d="M36.9,58.19c-.83,0-1.55-.71-1.6-1.57-.03-.47.15-.93.47-1.28.31-.33.71-.5,1.14-.5h18.27c.82,0,1.53.71,1.58,1.57.03.46-.14.93-.46,1.27-.3.32-.7.5-1.12.51h-18.27Z"/>
    <path class="cls-1" d="M36.9,55.34h.02s18.24,0,18.24,0c.57,0,1.05.5,1.09,1.1.02.33-.1.66-.33.9-.21.22-.48.35-.75.35h-18.28c-.57,0-1.07-.49-1.1-1.1-.02-.33.1-.66.34-.91.21-.22.49-.35.77-.35M36.9,54.34c-1.22,0-2.18,1.1-2.11,2.31.06,1.11.98,2.04,2.1,2.04,0,0,.02,0,.02,0h18.25c1.21-.02,2.14-1.11,2.07-2.31-.06-1.11-.97-2.03-2.07-2.04h-18.25s-.01,0-.02,0h0Z"/>
  </g>
  <path class="cls-3" d="M26.37,35.53c0-8.25,0-16.5,0-24.74-8.62,0-17.24-.02-25.87-.03v54.09l25.87-.06c0-8.82,0-17.65,0-26.47h-15.66v-2.79h15.66ZM12.72,13.9h9.96v17.51h-9.96V13.9ZM12.93,59.19v-16.13h11.07v16.13h-11.07Z"/>
  <path class="cls-3" d="M110.43,34.49c-3.04,3-6.07,6.01-9.11,9.01,3.04,3,6.07,6.01,9.11,9.01v13h-13c-3.06-3.03-6.12-6.05-9.18-9.08-3.06,3.03-6.12,6.05-9.18,9.08h-13v-13c3.04-3,6.08-6.01,9.11-9.01-3.03-3-6.07-6.01-9.11-9.01v-13h13c3.06,3.03,6.12,6.05,9.18,9.08,3.06-3.03,6.12-6.05,9.18-9.08h13v13Z"/>
  <rect class="cls-3" x="114.42" y="21.49" width="16.53" height="44.02"/>
  <rect class="cls-3" x="114.42" y=".5" width="16.53" height="16.53"/>
</svg>